name rise38.3101peak57.3503fall81.6963.mot
datacolumns 19
datarows 18
range 3.55000400000000 3.57832700000000
endheader
time	ground_force1_vx	ground_force1_vy	ground_force1_vz	ground_force1_px	ground_force1_py	ground_force1_pz	ground_force2_vx	ground_force2_vy	ground_force2_vz	ground_force2_px	ground_force2_py	ground_force2_pz	ground_torque1_x	ground_torque1_y	ground_torque1_z	ground_torque2_x	ground_torque2_y	ground_torque2_z	
3.55000400000000	-38.44111700000000	836.07379400000002	56.86172300000000	0.16453200000000	0.00000000000000	0.10919300000000	0.00000000000000	0.00000000000000	0.00000000000000	0.00000000000000	0.00000000000000	0.00000000000000	0.00000000000000	28.33273100000000	0.00000000000000	0.00000000000000	0.00000000000000	0.00000000000000	
3.55165700000000	-38.87732000000000	835.62313600000004	56.76967900000000	0.16366400000000	0.00000000000000	0.10910300000000	0.00000000000000	0.00000000000000	0.00000000000000	0.00000000000000	0.00000000000000	0.00000000000000	0.00000000000000	28.24767100000000	0.00000000000000	0.00000000000000	0.00000000000000	0.00000000000000	
3.55332900000000	-39.32749300000000	835.03815299999997	56.65141400000000	0.16280000000000	0.00000000000000	0.10901000000000	0.00000000000000	0.00000000000000	0.00000000000000	0.00000000000000	0.00000000000000	0.00000000000000	0.00000000000000	28.15883300000000	0.00000000000000	0.00000000000000	0.00000000000000	0.00000000000000	
3.55499800000000	-39.79216300000000	834.31600500000002	56.50641900000000	0.16194100000000	0.00000000000000	0.10891500000000	0.00000000000000	0.00000000000000	0.00000000000000	0.00000000000000	0.00000000000000	0.00000000000000	0.00000000000000	28.06636200000000	0.00000000000000	0.00000000000000	0.00000000000000	0.00000000000000	
3.55665800000000	-40.27181100000000	833.45390999999995	56.33422400000000	0.16108700000000	0.00000000000000	0.10881600000000	-1.34020800000000	3.67684300000000	0.47125600000000	0.00000000000000	0.00000000000000	0.00000000000000	0.00000000000000	27.97040400000000	0.00000000000000	0.00000000000000	0.12628800000000	0.00000000000000	
3.55832300000000	-40.76686200000000	832.44914800000004	56.13440800000000	0.16023800000000	0.00000000000000	0.10871300000000	-2.16370600000000	6.98894900000000	0.81273200000000	0.00000000000000	0.00000000000000	0.00000000000000	0.00000000000000	27.87110200000000	0.00000000000000	0.00000000000000	0.22495700000000	0.00000000000000	
3.55999600000000	-41.27768300000000	831.29906200000005	55.90659300000000	0.15939500000000	0.00000000000000	0.10860700000000	-3.09863200000000	10.97852400000000	1.21108600000000	0.00000000000000	0.00000000000000	0.00000000000000	0.00000000000000	27.76859600000000	0.00000000000000	0.00000000000000	0.34155200000000	0.00000000000000	
3.56165600000000	-41.80458100000000	830.00105799999994	55.65044900000000	0.15856000000000	0.00000000000000	0.10849800000000	-4.11750400000000	15.60008000000000	1.65776300000000	0.00000000000000	0.00000000000000	0.00000000000000	0.00000000000000	27.66302100000000	0.00000000000000	0.00000000000000	0.47406500000000	0.00000000000000	
3.56332600000000	-42.34779800000000	828.55260499999997	55.36569400000000	0.15773100000000	0.00000000000000	0.10838500000000	-5.18565300000000	20.77800200000000	2.14107700000000	0.00000000000000	0.00000000000000	0.00000000000000	0.00000000000000	27.55450800000000	0.00000000000000	0.00000000000000	0.61960000000000	0.00000000000000	
3.56498800000000	-42.90750700000000	826.95123999999998	55.05209700000000	0.15691100000000	0.00000000000000	0.10826900000000	-6.26347000000000	26.41225400000000	2.64697600000000	0.36024300000000	0.00000000000000	-0.06924200000000	0.00000000000000	27.44318200000000	0.00000000000000	0.00000000000000	1.29442800000000	0.00000000000000	
3.56665500000000	-43.48381100000000	825.19456400000001	54.70947400000000	0.15609800000000	0.00000000000000	0.10814800000000	-7.30925900000000	32.38676400000000	3.16007600000000	0.36588300000000	0.00000000000000	-0.06968700000000	0.00000000000000	27.32916100000000	0.00000000000000	0.00000000000000	1.58181500000000	0.00000000000000	
3.56832700000000	-44.07673600000000	823.28024800000003	54.33769400000000	0.15529500000000	0.00000000000000	0.10802400000000	-8.28234600000000	38.57940400000000	3.66482400000000	0.37115100000000	0.00000000000000	-0.07008600000000	0.00000000000000	27.21255100000000	0.00000000000000	0.00000000000000	1.87641200000000	0.00000000000000	
3.56999500000000	-44.68623200000000	821.20603100000005	53.93667700000000	0.15450000000000	0.00000000000000	0.10789600000000	-9.14600600000000	44.87211400000000	4.14664100000000	0.37608800000000	0.00000000000000	-0.07044500000000	0.00000000000000	27.09345500000000	0.00000000000000	0.00000000000000	2.17108300000000	0.00000000000000	
3.57165300000000	-45.31216700000000	818.96972100000005	53.50639500000000	0.15371500000000	0.00000000000000	0.10776400000000	-9.86985200000000	51.15985800000000	4.59289300000000	0.38072900000000	0.00000000000000	-0.07077100000000	0.00000000000000	26.97196000000000	0.00000000000000	0.00000000000000	2.45928300000000	0.00000000000000	
3.57332900000000	-45.95432700000000	816.56920100000002	53.04687100000000	0.15293900000000	0.00000000000000	0.10762900000000	-10.43143600000000	57.35744200000000	4.99358300000000	0.38510100000000	0.00000000000000	-0.07106800000000	0.00000000000000	26.84814600000000	0.00000000000000	0.00000000000000	2.73546600000000	0.00000000000000	
3.57498800000000	-46.61241200000000	814.00242500000002	52.55818400000000	0.15217200000000	0.00000000000000	0.10748900000000	-10.81699200000000	63.40374100000000	5.34174200000000	0.38922600000000	0.00000000000000	-0.07134100000000	0.00000000000000	26.72208000000000	0.00000000000000	0.00000000000000	2.99535900000000	0.00000000000000	
3.57665800000000	-47.28603200000000	811.26742100000001	52.04046400000000	0.15141600000000	0.00000000000000	0.10734600000000	-11.02136400000000	69.26329900000000	5.63350700000000	0.39312500000000	0.00000000000000	-0.07159400000000	0.00000000000000	26.59381800000000	0.00000000000000	0.00000000000000	3.23608200000000	0.00000000000000	
3.57832700000000	-47.97470700000000	808.36229600000001	51.49389600000000	0.15067000000000	0.00000000000000	0.10719800000000	-11.04724100000000	74.92554100000000	5.86793000000000	0.39681200000000	0.00000000000000	-0.07182900000000	0.00000000000000	26.46340200000000	0.00000000000000	0.00000000000000	3.45613600000000	0.00000000000000	
